<svg viewBox="0 0 306.6229 100" width="5000.000000000001px" height="1630.6675376034384px" xmlns="http://www.w3.org/2000/svg" xmlns:xlink="http://www.w3.org/1999/xlink" preserveAspectRatio="none"><defs></defs><style>.a0Ea9C2IS-colors-0MKDFsWFdn6 {fill:#000000;fill-opacity:1;}.companyNameMKDFsWFdn6 {fill:#000000;fill-opacity:1;}.shapeStroke-strMKDFsWFdn6 {stroke:#3F3F3F;stroke-opacity:1;}.textMKDFsWFdn6 {fill:#000000;fill-opacity:1;}</style><g opacity="1" transform="rotate(0 144.61939999999998 15.474899999999991)">
        <svg width="162.0035" height="45.1755" x="144.61939999999998" y="15.474899999999991" version="1.1" preserveAspectRatio="none" viewBox="1.48 -26.08 94.96 26.48">
          <g transform="matrix(1 0 0 1 0 0)" class="companyNameMKDFsWFdn6"><path d="M14.76-26.08Q19.52-26.08 22.14-23.34Q24.76-20.60 24.76-15.36L24.76-15.36Q24.76-10.64 23.20-7.08Q21.64-3.52 18.64-1.56Q15.64 0.40 11.44 0.40L11.44 0.40Q6.72 0.40 4.10-2.42Q1.48-5.24 1.48-10.52L1.48-10.52Q1.48-15.24 3.02-18.76Q4.56-22.28 7.54-24.18Q10.52-26.08 14.76-26.08L14.76-26.08ZM14.12-21.80Q10.52-21.80 8.74-19.14Q6.96-16.48 6.96-10.64L6.96-10.64Q6.96-7 8.14-5.34Q9.32-3.68 11.96-3.68L11.96-3.68Q15.56-3.68 17.36-6.36Q19.16-9.04 19.16-14.92L19.16-14.92Q19.16-18.56 17.98-20.18Q16.80-21.80 14.12-21.80L14.12-21.80Z M27.68-5.28Q28.92-5.28 29.60-4.58Q30.28-3.88 30.28-2.64L30.28-2.64Q30.28-1.28 29.52-0.50Q28.76 0.28 27.48 0.28L27.48 0.28Q26.20 0.28 25.52-0.42Q24.84-1.12 24.84-2.40L24.84-2.40Q24.84-3.72 25.60-4.50Q26.36-5.28 27.68-5.28L27.68-5.28Z M57.80-25.72L48.72-13.20L54.96 0L48.80 0L47.96-2.56L44.64-9.32L39.24-2.24L37.84 0L32.44 0L41.96-13L35.80-25.72L42-25.72L42.84-23.20L45.96-16.76L50.84-23.40L52.24-25.72L57.80-25.72Z M60.76-5.28Q62.00-5.28 62.68-4.58Q63.36-3.88 63.36-2.64L63.36-2.64Q63.36-1.28 62.60-0.50Q61.84 0.28 60.56 0.28L60.56 0.28Q59.28 0.28 58.60-0.42Q57.92-1.12 57.92-2.40L57.92-2.40Q57.92-3.72 58.68-4.50Q59.44-5.28 60.76-5.28L60.76-5.28Z M90.88-25.72L81.80-13.20L88.04 0L81.88 0L81.04-2.56L77.72-9.32L72.32-2.24L70.92 0L65.52 0L75.04-13L68.88-25.72L75.08-25.72L75.92-23.20L79.04-16.76L83.92-23.40L85.32-25.72L90.88-25.72Z M93.84-5.28Q95.08-5.28 95.76-4.58Q96.44-3.88 96.44-2.64L96.44-2.64Q96.44-1.28 95.68-0.50Q94.92 0.28 93.64 0.28L93.64 0.28Q92.36 0.28 91.68-0.42Q91-1.12 91-2.40L91-2.40Q91-3.72 91.76-4.50Q92.52-5.28 93.84-5.28L93.84-5.28Z"></path></g>
        </svg>
      </g><g opacity="1" transform="rotate(0 123.9547 15.474899999999991)">
        <svg width="3.2938" height="79.0503" x="123.9547" y="15.474899999999991" version="1.1" preserveAspectRatio="none" viewBox="0 0 3.2938 79.0503">
          <rect x="0" y="0" width="3.2938" height="79.0503" class="companyNameMKDFsWFdn6 shapeStroke-strMKDFsWFdn6" style="stroke-width:0;" rx="0px" ry="0px"></rect>
        </svg>
      </g><g opacity="1" transform="rotate(0 0 0)">
        <svg width="99.9199" height="100" x="0" y="0" version="1.1" preserveAspectRatio="none" viewBox="19.95858383178711 19.925003051757812 160.06216430664062 160.19046020507812">
          <g transform="matrix(1 0 0 1 0 0)" class="a0Ea9C2IS-colors-0MKDFsWFdn6"><g><path d="M140.4 55.1c-.3 1.1-.4 2.4-.3 3.7.2 1.7-.5 3.1-.9 4.6-.6 2.1-1.5 4.2-2.5 6.2-.3.6-.4 1.2-.6 1.8-.4 1.2-.9 2.3-1.3 3.4-.9 2-1.4 4.2-2.2 6.3-.7 1.9-1.6 3.7-2.2 5.6-.7 2.1-1.7 4.1-2.4 6.2-.2.7-.6 1.3-.9 1.9-.1.3-.3.4-.6.5-1.7.8-2.2 2.2-2.6 3.9-.4 1.8-.5 3.6-.7 5.4-.1 1.7-.7 3.2-.8 4.8-.1 1.6-.4 3.2-.6 4.8-.3 2.2-.7 4.3-1.1 6.5-.4 2-.6 4.1-.9 6.2-.1 1.2-.6 2.3-.8 3.6-.1.5-.1 1-.2 1.4-.3 1.9-.9 3.6-1.5 5.4-.4 1.3-.5 2.7-.8 4-.4 1.9-.5 3.9-1 5.8-.4 1.7-.6 3.5-1 5.2-.3 1.4-.5 2.9-.9 4.3-.7 2.4-.8 4.9-1.3 7.3-.8 3.5-1.7 6.9-2.5 10.4-.3 1.4-.6 2.8-.9 4.3-.1.7-.8 1.3-1.6 1.2-1.4-.2-2.8.1-4.1.2-2.4.2-4.9.1-7.3 0-1.2 0-2.4-.4-3.7-.2-.5.1-1.1-.1-1.7-.3-.4-.1-.9-1.1-.7-1.7.2-.6.1-1.1 0-1.8-.1-1.2-.5-2.3-.5-3.4 0-1.9-.5-3.8-.6-5.8-.1-.8-.2-1.5-.4-2.3 0-.2-.1-.3-.1-.5.4-1.2 0-2.5.3-3.8.1-.4 0-.7-.1-1-.5-.9-.3-1.9-.2-2.9 0-.3.1-.7 0-1-.4-2-.3-4-.5-6.1-.1-1.1-.1-2.3-.3-3.4-.1-.7-.3-1.4-.3-2.2 0-.9-.2-1.8-.2-2.7v-.2c-.4-1.3-.1-2.8-.6-4.1-.1-.3.1-.7.2-1 .1-.4.1-.7-.2-1-.5-.6-.3-1.3 0-2 .1-.3.2-.6.1-1-.2-.7 0-1.5-.2-2.2-.2-.5-.2-1.1-.3-1.6-.4-1.6 0-2.9.6-4.3.7-1.9 1.2-3.9 1.9-5.8.2-.7.4-1.3.5-2 0-.4.1-.8.3-1.1.6-1.1.6-2.3 1-3.5.1-.2.1-.5.2-.8.4-1.2.8-2.4 1.1-3.6.3-1.2.5-2.4.7-3.7.1-.8.3-1.6.8-2.3.1-.1.2-.3.2-.4.1-1.7 1-3.1 1.3-4.8.1-.6.4-1.2.6-1.7.5-1.1.6-2.3 1.2-3.4.5-.9.8-1.8.9-2.8 0-.4.5-.6.6-1 .4-1.6 1-3.1 1.6-4.6.5-1.2.6-2.5 1.3-3.7.7-1.1 1.4-2.3 2.1-3.4.9-1.3 1.8-2.6 2.8-3.9.8-1 1.3-2.3 2.2-3.2.5-.5.5-1.3 1-1.8.2-.2 0-.5-.3-.7-.5-.3-1.2-.2-1.5.3-1.3 1.7-2.5 3.5-3.8 5.1-.8 1-1.6 2-2.3 3.1-.1.2-.3.4-.5.5-.2.1-.5.1-.5-.3 0-1.1-.3-2.1-.6-3.2-.1-.4-.3-.9-.4-1.3-.2-.5-.2-1.5-.1-2.5 0-.3 0-.6.1-.9.1-.5-.1-.8-.6-.9-.4-.1-.8 0-1.1.4-.4.5-.6 1-.5 1.6.2 1.6.3 3.3.7 4.9.8 3.2.6 6.3-.4 9.4-1 2.8-2 5.5-2.8 8.4-.6 2.2-1.4 4.3-1.9 6.4-1 4.1-2.5 8-3.7 12.1-.6 2-1.2 3.9-1.8 5.9-.5 1.7-1.2 3.3-2 4.9-.1.2-.1.3-.2.5s-.1.7-.5.7-.8-.2-1-.6c-.3-.6-.5-1.2-.8-1.9-.9-2.1-1.8-4.1-2.5-6.2-.5-1.3-.6-2.7-.8-4.1-.2-1.6-.3-3.3-1.1-4.8-.2-.3-.2-.6-.3-1-.1-.7-.2-1.3-.5-1.9-.3-.6-.6-1.3-.5-2.1 0-.6-.6-1.1-.7-1.7l-.9-3.9c-.4-1.8-.3-3.7-.2-5.5 0-.6.1-1.1-.2-1.7-.1-.1-.1-.3-.1-.4 0-1.7-.2-3.4-.6-5.1s.4-3.2.6-4.8c.1-.5.2-1 .2-1.5 0-1.1.6-2 .7-3.1.1-1.4.7-2.7.8-4.1.1-1-.1-2.1.5-3.1.2-.3 0-.8 0-1.2 0-.6 0-1.1.4-1.6.1-.1.1-.3.1-.4-.5-1 .1-2 .2-2.9.1-1.1.4-2.3.6-3.4.1-.7 0-1.4 0-2.2 0-.6.1-1.2.3-1.7.3-.9.1-1.9.4-2.8.3-1 .4-2.1.7-3.1.1-.4.1-.8.2-1.2.1-.4.1-.9.4-1.3.1-.1.1-.3.1-.4-.2-1.1.4-2 .5-3 .1-1.3.6-2.5.8-3.7v-.3c.8-1.6.8-3.4 1.4-5 .3-.8.6-1.7.7-2.6.1-.8.2-1.6.4-2.4.1-.5.4-.9.4-1.5 0-.4.4-.5.7-.5 1.2 0 2.3-.7 3.6-.5.4.1.8-.4 1.3-.4 1.9-.1 3.7-.4 5.6-.4 1.2 0 2.4-.2 3.6-.2.4 0 1 .2 1.4-.2.1-.1.3-.1.5 0 .2.2.5.2.8.2 1.1-.1 2.1.1 3.2.1.8 0 1.6 0 2.4.1 1.2.2 2.3.5 3.5.5.8 0 1.5.2 2.2.4 1.3.4 2.7.4 4 .8 1 .3 2.1.6 3.2.7.3 0 .6.2.9.3 1.3.5 2.7.8 4.1 1.3 1.2.4 2.4.9 3.6 1.2 1 .3 2.1.7 3 1.3.5.3 1.1.4 1.6.7.8.3 1.2 1 1.4 1.7.6 2.5 1.1 5 1.5 7.5.1.9.5 1.7.6 2.6.5 3.3 1.4 6.6 2.1 9.8.3 1.5.6 2.9.9 4.4.3.5.3.9.4 1.5z"></path><path d="M37.2 147.7v-.5c-.6-1.9-.7-3.8-.9-5.8v-.1c.2-1.3-.4-2.5-.6-3.7-.1-1.3-.3-2.6-.3-3.9 0-.9-.1-1.6-.4-2.5-.4-1-.5-2.2-.6-3.3-.1-1 0-2.1-.4-3.1-.2-.7-.5-1.5-.1-2.3.1-.2.1-.4 0-.6-.4-.7-.2-1.5 0-2.2.3-.8-.1-1.5-.2-2.3-.1-.7-.1-1.5 0-2.2 0-.2.1-.5-.1-.6-.9-.7-.7-1.7-.6-2.6.2-1.4-.4-2.6-1.1-3.7-.7-1-1-2.2-1.5-3.3-.5-1.2-.6-2.4-.9-3.7l-1.2-4.5c-.5-1.8-1.2-3.6-1.5-5.4-.1-.5-.1-1-.5-1.4-.1-.1-.1-.2-.1-.3.3-1 0-2 0-3 0-.7-.1-1.3-.4-1.9-.2-.6-.3-1.1-.3-1.7.1-.5 0-1.1-.2-1.7-.4-.7-.3-1.5-.5-2.3-.4-1.2-.1-2.5-.7-3.6-.2-.4-.1-.7.1-1.1.4-1 .7-2.1 1.1-3.1.5-1.2 1-2.5 1.5-3.7s1.2-2.4 1.8-3.7c.9-2 1.9-3.9 3.2-5.7 1-1.4 1.8-3 2.9-4.3.2-.3.4-.3.5.1.5 1.4 1 2.7 1.6 4 1.1 2.5 2.1 4.9 3.2 7.4.5 1.1 1.2 2.2 1.8 3.3.8 1.4 1.3 3 2 4.4.9 1.8 1.6 3.7 2.4 5.5.4.9 1.2 1.6 1.5 2.5.8 1.9 1.9 3.7 2.7 5.6.3.7.6 1.3 1 2 1.4 2.3 2.2 4.9 3.2 7.3.9 2.1 1.7 4.2 2.6 6.3.2.5.2 1 .4 1.5.4 1.2.9 2.5 1.3 3.7.3 1.2.8 2.4-.1 3.6-.5.6-.5 1.4-.4 2.2.1 2 .5 3.9.4 5.9-.1 1.9-.3 3.8-.5 5.7-.2 1.9-.3 3.7-.4 5.6-.1 3-.4 6-.7 9-.2 2-.2 4-.5 5.9-.1 1-.1 2.1-.2 3.1-.1 1.2-.2 2.4-.1 3.6.1 1.3-.2 2.6-.4 3.8-.4 2.3-.8 4.7-.8 7.1 0 .8-.2 1.5-.2 2.3 0 .4-.2.7-.7.3-.6-.4-1.1-1-1.7-1.3-1.1-.6-2-1.5-2.9-2.2-.9-.8-2-1.2-2.7-2.3-.1-.1-.2-.2-.4-.3-1.3-.8-2.1-2-3.2-2.9-1.3-1.2-2.4-2.6-3.7-3.8-.8-.8-1.7-1.7-2.2-2.8-.3-.7-.4-1.5-.6-2.3h.3z"></path><path d="M148.8 114.4c-.1-.7.2-1.3.3-1.9.1-.3.2-.5.1-.8-.4-.6-.2-1.1.1-1.7.5-.9.2-2 .4-2.9.3-1 .3-2 .4-3 .1-1.8.9-3.3 1.3-5 .2-1 .6-2 .8-3.1.2-1.1.4-2.2.8-3.1.4-1 .8-2 .9-3 .2-1.4.6-2.7 1-4 .2-.7.1-1.5.4-2.1.7-1.3.8-2.7 1.2-4.1.3-1.2.7-2.3.9-3.5.2-1.3.4-2.5.8-3.8.4-1.2.7-2.5 1-3.8.1-.5.3-.9.4-1.3.1-.5.1-.9-.4-1.2-.4-.2-.9.1-1 .7-.3.9-.5 1.9-.7 2.8-.2 1-.5 2.1-.8 3-.8 2-1.2 4.1-1.8 6.1-.6 2.1-1.3 4.2-1.8 6.3-.4 1.8-1 3.7-1.4 5.5-.4 1.4-1.1 2.8-1.4 4.2-.6 2.7-2 5.1-2.3 7.8 0 .2 0 .4-.2.4s-.3-.2-.3-.3c-.1-1.8-1.1-3.3-1.5-5-.2-1-.7-1.9-.8-2.9-.1-.7-.5-1-1.2-.9-.6.1-.8.4-.7 1.2.2 1.1.6 2.1.8 3.1.4 1.6.7 3.3 1 4.9l.3 1.2c.2.5.3.9.3 1.4 0 2.6.4 5.3.7 7.9.2 1.6.4 3.3.5 4.9 0 .2 0 .4-.1.5-.6 1.1-1.2 2.1-1.9 3.1-.8 1-1.6 2.1-2.3 3.3-.9 1.4-2 2.6-3 3.9-1.2 1.7-2.5 3.4-3.8 5.1-.9 1.2-1.9 2.3-2.9 3.4-1.5 1.7-2.8 3.6-4.1 5.4-1.2 1.7-1.9 3.5-3.3 5.1-1 1.1-1.6 2.5-2.5 3.7-1.1 1.4-1.9 2.9-3 4.3-.7 1-1.6 1.8-2.4 2.6-.2.2-.3.7-.6.6-.4-.1-.2-.6-.3-.9-.4-1.4-.2-2.7.5-3.9.2-.3-.1-.6 0-.9.1-1 .4-2 .7-3 .2-.8.4-1.6.5-2.5.1-.8.1-1.7.3-2.5.2-.8.4-1.7.5-2.5.1-1 .4-2 .8-2.9.3-.7.1-1.3.1-2s.1-1.4.5-2c.6-.8.6-1.8.8-2.7.2-1.5.5-2.9 1.1-4.3.4-.9.6-1.9.8-2.8.2-.8.5-1.6.6-2.5.1-.6-.1-1.1.1-1.7.5-1 .5-2 .6-3.1v-.1c.7-1.2.4-2.7.9-4 .2-.5.2-1.1.4-1.6.8-1.5.8-3.2 1.2-4.8.4-1.7.7-3.5 1.4-5.2.5-1.3.6-2.7 1.2-3.9.8-1.4 1.1-3 1.3-4.5.1-.6.4-1.1.6-1.7.4-.8.5-1.8.5-2.6 0-1.1.6-2 .8-3.1.4-1.5.9-3 1.4-4.4.4-1.2.7-2.5 1.4-3.6 0-.1.1-.1.1-.2.8-2.9 2.5-5.5 3.6-8.3l1.8-5.1c.4-1.2.8-2.3 1.3-3.5.8-2 1.6-4.1 2.4-6.1.3-.7.6-1.2.7-2 .1-1 .8-1.9 1.3-2.7.6-1 1-2.1 1.6-3.2.4-.7.8-1.5.9-2.4 0-.6.5-.9.7-1.4.4-1 .6-2 1.1-2.9 0-.1 0-.2.1-.2.6-1.5 1.4-1.6 2.6-.5.7.6 1.3 1.3 2.1 1.9.5.4.8 1 1.3 1.4 1.1 1 1.9 2.3 3.1 3.3.3.2.5.6.6.9.6 1.1 1.6 1.8 2.3 2.8.6.9 1.3 1.8 2 2.8.1.1.2.3.3.4 1 .8 1.1 1.9.7 3-.3 1-.2 2.1-.3 3.1-.2 2.2-.5 4.4-.7 6.5-.3 2.3-.6 4.6-1.2 6.9-.7 3.2-1.2 6.5-1.5 9.8-.1 1.6-.4 3.2-.9 4.8-.3.9-.4 1.8-.5 2.7-.1 2.3-.8 4.5-1.4 6.7-.2.8-1 1.4-1.3 2.2-.2.6-.6 1.1-.9 1.6-.7 1-1.1 2.3-1.8 3.3-.6.9-1.2 1.9-2 2.8-.9 1.1-1.6 2.3-2.3 3.5-.7 1.3-1.7 2.5-2.5 3.7-.2.3-.4.2-.5-.1.2-.1.2-.5.3-.8z"></path><path d="M80 122.7c.2 1.1.1 2.2.3 3.3 0 .2.1.4.2.5.9 1 .9 2.3 1 3.5.2 1.6.4 3.3.8 4.9.3 1.3.3 2.7.4 4 .1 1.6.5 3.1.8 4.7.1.4.1.8.1 1.1-.1.9 0 1.7.2 2.6.5 2 .5 4 .7 5.9.1 1.6.5 3.2.6 4.8.1 2.2.4 4.4.5 6.6.1 2.3.2 4.6.3 7 0 1 0 2.1.1 3.1 0 1 .1 2 .2 3 .1.8-.1.9-.9.7-1.4-.4-2.9-.6-4.3-.9-1-.3-2.1-.5-3.2-.9-1.7-.7-3.5-1.1-5.2-1.7-1.2-.4-2.3-1-3.4-1.4-1.5-.4-2.7-1.3-4.1-1.9-.9-.4-1.8-.7-2.6-1.2-.7-.5-1.5-.9-2.2-1.3-.4-.2-.5-.5-.4-.9.1-.8.4-1.5.1-2.3v-.1c.7-1.4.2-3 .4-4.5.2-1.2.4-2.4.2-3.6-.1-.7.1-1.4.3-2.1.2-.6.5-1.2.1-1.9v-.2c.6-1.1.1-2.2.2-3.4.2-1.4 0-2.8.3-4.2.3-1.1.2-2.2.4-3.3.2-1.3.2-2.7.3-4v-.4c-.4-1.4 0-2.8.1-4.2.1-.8.6-1.6.3-2.4-.2-.7-.2-1.3-.1-2 .2-1.6.1-3.2.1-4.8 0-.6.4-1.2.3-1.9-.2-.8-.1-1.5.4-2.2.1-.2.1-.4.1-.6-.2-.9 0-1.7.2-2.5l.9-3.6c.1-.4.2-.8.4-1.2.2-.4.3-.7.1-1.2-.1-.1-.1-.3-.1-.5.1-1.7-.2-3.3.1-5 .1-.7-.4-1.2-.2-1.9.4-1.4.3-2.8.5-4.2 0-.3.1-.5.1-.8-.2-1.6.3-3.2.4-4.8 0-1 .5-1.9.6-2.8 0-.3.1-.7.1-1-.1-.7-.1-1.4.2-2 .3-.7 0-1.4.2-2.1.3-1.1-.1-2.3.5-3.3.2-.3-.2-.6-.1-.9.2-1.4.2-2.7.3-4.1 0-.7.4-1.3.1-2.1v-.2c.2 0 .2.1.2.2.9 2.1 1.9 4.3 1.9 6.7 0 2.4.9 4.5 1.8 6.6.3.7.6 1.4.8 2.2.3 1.2.7 2.3 1 3.4 1.2 4.3 2.7 8.6 3.5 13.1.3 1.8.9 3.6 1.4 5.4.7 2.8 1.4 5.5 2 8.3-.3.3-.3.6-.3.9z"></path><path d="M152 159.9c.2-1.5-.3-2.9-.4-4.3-.1-1.3-.1-2.6.1-3.9 0-.2.2-.4 0-.6-.5-.6-.2-1.4-.2-2 0-.2.1-.4 0-.5-.5-.7-.3-1.3-.1-2 .1-.2 0-.4-.1-.6-.1-.6-.2-1.2 0-1.8 0-.1.1-.3.1-.4-.5-1.9-.3-3.8-.5-5.8-.1-1.3-.4-2.6-.2-3.9.1-.7-.2-1.3-.2-1.9-.1-1-.1-2.1-.4-3.1-.2-.8-.2-1.8-.3-2.6-.1-1.2-.2-2.3.1-3.5.2-.7-.3-1.5-.3-2.2 0-.5.1-.9.5-1.3.6-.8 1.1-1.8 1.6-2.7.6-.9 1.2-1.7 1.7-2.6.7-1.2 1.8-2.2 2.6-3.4.8-1 1.5-2.1 2.1-3.2.5-.9 1.3-1.5 1.8-2.4.1-.2.3-.3.4-.4.6-1.5 1.9-2.3 3.2-3.1.8-.5 1.4-1.1 2.1-1.7 1.2-1 2.6-1.6 3.8-2.6 1.7-1.4 3.6-2.5 5.2-3.9 1-.8 2-1.5 2.8-2.5.3-.4 1-.6 1.4-1 .1-.2.2-.1.4.1.3.5.3 1 .3 1.4-.1 1.1.1 2.1.3 3.1.1 1 .2 2 .1 3-.1.6.2 1.1.1 1.6-.1 1.3-.2 2.7-.2 4.1 0 1.2 0 2.4-.1 3.7-.1.7-.2 1.4-.1 2.2.1.4-.5.8-.4 1.3.1.9-.1 1.8-.3 2.6-.2 1.2-.2 2.5-.6 3.7-.3 1-.3 2-.7 2.9-.6 1.4-.7 3-1.3 4.4-.6 1.5-.8 3.2-1.5 4.7-.6 1.3-1.1 2.5-1.5 3.8v.1c-1.1 1.2-1.6 2.9-2.3 4.3-1.4 2.7-3 5.3-4.7 7.8-.7 1.1-1.5 2.1-2.2 3.2-.5.7-1 1.3-1.3 2.1-.2.4-.7.7-1.1 1.1-1.1 1.4-2.3 2.7-3.5 4-1.4 1.4-2.8 3-4.4 4.3-.4.3-.7.6-1 .9-.1.1-.2.4-.4.3-.4-.3-.4-.6-.4-.8z"></path><path d="M148.4 158.2c.3 1.8-.1 3.7-.6 5.6-.2.6-.6.9-1.1 1.2-.2.1-.5.1-.6.3-.7.9-1.7 1.2-2.6 1.8-1.3.8-2.6 1.6-3.8 2.5-.5.4-1.1.6-1.7.8-1.2.5-2.1 1.6-3.5 1.6-.3 0-.5.3-.8.4-1.5.8-3 1.5-4.6 1.9-1 .3-1.9.8-2.9 1.1-1.6.5-3.2 1.1-4.8 1.5-2.6.6-5.2 1.3-7.8 1.8-.2 0-.4.1-.3-.2.2-.5 0-1 .3-1.5.1-.1.1-.3.1-.5-.1-1.3.5-2.6.6-3.9.1-.8.5-1.6.9-2.3.9-1.7 1.8-3.4 2.6-5.2.1-.3 0-.5 0-.7.1-.6.3-1.1.8-1.5.5-.6 1.1-1.1 1.5-1.8.2-.3.4-.6.8-.8.1-.1.3-.2.4-.3.8-1.5 2.2-2.6 3.1-4 1.1-1.7 2.5-3.2 3.5-4.9.4-.6.8-1.2 1.3-1.8.3-.4.6-.8.7-1.4.2-.8.8-1.4 1.3-2 .8-.9 1.3-1.9 2-2.9.6-.8 1.2-1.5 1.8-2.3.5-.7.9-1.4 1.5-2 .9-.9 1.3-2.2 2.4-3 .6-.5.8-1.4 1.4-2 1.2-1.2 2.1-2.6 2.9-3.9.8-1.3 1.6-2.4 2.6-3.5.5-.5.7-1.2 1.1-1.8.1-.2.3-.6.6-.5.3.1.2.5.2.7l.6 7.8c.1 2.2.1 4.4.1 6.6 0 2.1.1 4.2.2 6.3.1 1.5.1 3.1 0 4.6 0 .6-.1 1.2 0 1.9-.2 2.2-.2 4.2-.2 6.3z"></path><path d="M62.4 62c-.2 2.1-.2 4.4-.2 6.6 0 2.6-.2 5.1-.2 7.7 0 1.3-.2 2.6-.1 3.9 0 1.1-.1 2.3 0 3.4 0 1.6-.1 3.1-.3 4.7-.1.6.1 1.2 0 1.9-.4 2.4-.3 4.9-.6 7.3-.1 1.1 0 2.2 0 3.3v.4c0 .3 0 .6-.3.7-.2 0-.2-.4-.3-.6-.3-.8-.5-1.6-.7-2.4-.1-.3-.2-.5-.4-.7-.3-.4-.7-.7-.6-1.3 0-.4-.4-.6-.6-.9-.6-1.2-.9-2.5-1.5-3.7-.4-.8-.5-1.8-1.1-2.5-.7-.9-.5-2.2-1-3.2-.2-.4-.3-.8-.5-1.2-.3-.4-.6-.9-.6-1.5 0-.4-.3-.8-.6-1-.7-.6-1.1-1.3-1.2-2.2 0-.4-.3-.5-.5-.8-1-1.3-1.6-2.7-2.4-4.1-1.2-2.2-2.6-4.3-3.3-6.8-.1-.2-.2-.4-.4-.5-.5-.4-.9-.8-.7-1.4 0-.1 0-.2-.1-.3-.6-.6-.9-1.5-1.4-2.2-.5-.8-1.1-1.5-1.5-2.4-.5-1.1-.8-2.3-1.5-3.4-.3-.4-.3-1-.5-1.4-.5-1-1.1-2-1.6-3.1-.4-.8-.6-1.8-.8-2.7-.1-.2.1-.5.2-.7.5-.6.8-1.4 1.5-1.8.1 0 .1-.2.2-.3 1-1.7 2.6-2.8 3.9-4.4 1-1.3 2.3-2.4 3.5-3.5.9-.7 1.7-1.7 2.7-2.3 1.2-.8 2.1-1.9 3.4-2.6.6-.3 1.1-.9 1.6-1.3.4-.3.6-.1.7.3.3 1.8.9 3.5 1.4 5.2.5 1.7.9 3.4 1.6 5.1.6 1.5 1 3.1 1.4 4.7.4 1.6 1 3.2 1.5 4.8.7 1.9 1.3 3.8 1.9 5.7.1.6 0 1 0 1.5z"></path><path d="M80.5 22.8c.7-.3.7 0 .6.6-.2 3-1 5.8-1.6 8.7-.6 2.7-1.1 5.4-1.6 8.1-.3 1.7-.8 3.3-.9 5-.2 2-.8 3.9-1 6-.2 2.2-.6 4.4-.9 6.6-.4 2.9-.9 5.9-1.2 8.8-.3 2.5-.9 5-1.5 7.5-.1.6-.2 1.2-.7 1.7-.5.5-.5.5-.9-.1-.2-.4-.3-.9-.4-1.3-.2-.5-.2-1.1-.7-1.5-.1 0-.1-.1-.1-.2-.1-1.7-.7-3.2-1.1-4.8-.5-1.9-.3-3.8-.3-5.8 0-.8-.2-1.7 0-2.5.1-.3 0-.5.2-.8.3-.4.1-.8 0-1.2-.2-.6-.3-1.1.2-1.6.2-.3.2-.5.1-.8-.3-1.3-.3-2.6 0-4 .2-.7.1-1.4.1-2.1 0-.6-.2-1.3.1-1.9 0-.1.1-.2 0-.3-.4-1 0-2 .1-3 .1-1.1 0-2.3.3-3.4.4-1.6.2-3.3.1-4.9-.1-1 .5-1.8.6-2.7.1-.6.3-1.1.1-1.7-.3-1 .3-2 .4-3 0-.6-.1-1.2 0-1.8.1-.4.3-.6.7-.6.3 0 .6-.1.9-.3.9-.5 1.8-1.1 2.9-1.1.7 0 1.4-.4 2.1-.7 1.2-.5 2.4-.5 3.4-.9z"></path><path d="M178.1 83.2c0 .5.4.9.4 1.5 0 .3.1.7.2.9.5 1.2-.2 1.9-1 2.5-2 1.4-3.7 3.1-5.7 4.6-1.5 1.2-3 2.4-4.7 3.3-.9.5-1.5 1.4-2.6 1.7-.5.2-1.1.6-1.5.3-.3-.2 0-.8.1-1.3l.3-1.2c.2-.6.3-1.1.1-1.7-.1-.2-.1-.3 0-.5.4-.5.3-1.1.3-1.7s-.1-1.3.2-1.9c.1-.1.1-.3 0-.4-.3-1 .1-2 .4-2.9.1-.4.2-.7.2-1.1v-.5c.7-1.7.3-3.5.7-5.2.3-1.2.5-2.4.7-3.5.2-.8.4-1.7.4-2.5 0-.4.1-.8.3-1.1.4-.7.4-1.5.4-2.2-.1-1.2.4-2.3.4-3.5 0-.7.4-1.4.3-2.2-.1-.4 0-.7.2-1.1.2-.3.2-.7.1-1 0-.2-.1-.5 0-.7.2-.3.2-.6.1-1-.1-.2-.1-.4 0-.6.1-.3.1-.8.3-.8.4 0 .2.5.3.7.1.1.1.3.2.4 1.2 1.2 1.7 2.8 2.5 4.2.4.7.7 1.4 1 2.2.3.8.8 1.5 1.1 2.3.9 1.9 1.4 3.9 2.1 5.8.4 1.1.6 2.2 1 3.3.4 1.3.9 2.5 1 3.8-.1.4.5.6.2 1.1z"></path><path d="M28.1 107.4c-.5.8-.3 1.7-.3 2.6-.1 2.3.3 4.4 1 6.5 0 .1 0 .2.1.3 1.5 2 1.4 4.3 1.5 6.5.2 2.9.7 5.7 1.1 8.5.2 1.4.5 2.9.7 4.3.1 1.1.4 2.2.6 3.3.2 1.2.3 2.5.4 3.7 0 .1 0 .3-.1.3-.2.1-.2-.1-.3-.2-.2-.5-.5-1-.9-1.4-.5-.7-.8-1.5-1.3-2.2-.7-1.1-1.3-2.2-1.9-3.4-.5-1-.9-2.1-1.5-3.1-.4-.6-.5-1.4-.9-2.1-.7-1.5-1.3-3.1-1.8-4.7-.5-1.7-1.4-3.3-1.5-5.1-.1-.6-.4-1.2-.5-1.7-.1-1-.7-1.9-.6-3 .1-.5-.3-.8-.4-1.3-.3-1.6-.5-3.2-.7-4.9-.2-1.4-.1-2.9-.4-4.3-.3-1.8-.3-3.5-.4-5.3-.1-1.4 0-2.8.1-4.1 0-1 .2-2 .1-2.9 0-.3 0-.7.1-1 .2-.6.2-1.1.2-1.7-.1-.8.2-1.6.3-2.5.2-1.8.7-3.6 1-5.3 0-.2 0-.4.2-.4s.2.2.2.4c.4 2.4 1 4.8 1.6 7.1.6 2.1 1.1 4.3 1.5 6.4.5 2.7 1.6 5.2 2.2 7.9.3 1.1.5 1.9.6 2.8z"></path><path d="M143.1 52.3c-.1-1.2-.1-2.4-.8-3.5-.3-.6-.3-1.4-.4-2.1 0-.5 0-.9-.3-1.2 0-.1-.1-.1-.1-.2 0-1.2-.7-2.2-.8-3.4 0-.2-.1-.3-.2-.5-.8-1.5-1.3-3.1-1.5-4.7-.2-1.4-.4-2.7-.8-4-.2-.6-.6-1.1-.5-1.8 0-.5.3-.6.6-.5.3.1.5.2.7.3.7.6 1.7.8 2.5 1.4 1.2.9 2.6 1.7 3.8 2.6.7.5 1.4 1.2 2.2 1.5.8.3.9.6.6 1.4-.7 1.5-.9 3.2-1.6 4.8-.9 2.1-1.8 4.3-2.4 6.5-.3 1.2-.8 2.4-1.2 3.6 0 .1-.1.2-.2.4-.2-.1 0-.3 0-.4.4-.1.4-.1.4-.2z"></path><path d="M66.1 29.3c-.1 1-.4 2-.4 3 0 2.1-.6 4.1-.9 6.1-.2 1.3-.4 2.7-.4 4 0 .8-.1 1.5-.3 2.2-.2.8-.3 1.6-.3 2.3 0 1-.3 2-.4 3 0 .1-.1.3-.2.3-.2 0-.1-.2-.1-.3 0-.3-.1-.6-.3-.9-.2-.2-.3-.5-.3-.7 0-.4-.2-.8-.4-1.1-.5-.6-.3-1.4-.6-2-.8-1.2-1-2.7-1.7-4-.3-.6-.4-1.3-.7-1.9-.3-.6-.6-1.3-.8-1.9-.4-1.2-.9-2.4-1.3-3.7-.1-.4 0-.6.4-.9 2.3-1.5 4.7-2.8 7.1-4.1.4-.2.8-.2 1.2-.5.2-.2.4 0 .4.2-.1.3-.1.6 0 .9z"></path></g></g>
        </svg>
      </g><g opacity="1" transform="rotate(0 144.61939999999998 73.7652)">
        <svg width="95.48" height="20.76" x="144.61939999999998" y="73.7652" version="1.1" preserveAspectRatio="none" viewBox="1.32 -20.44 95.48000000000002 20.76">
          <g transform="matrix(1 0 0 1 0 0)" class="textMKDFsWFdn6"><path d="M12.80-20.44Q14.32-20.44 15.76-20.18Q17.20-19.92 18.28-19.40L18.28-19.40L16.92-15.16L16.48-14.96Q15.68-15.64 14.52-16.04Q13.36-16.44 12.04-16.44L12.04-16.44Q6.52-16.44 6.52-9.12L6.52-9.12Q6.52-3.76 10.80-3.76L10.80-3.76Q11.96-3.76 13.28-4.12Q14.60-4.48 15.60-5.12L15.60-5.12L16.04-4.88L15.16-0.64Q12.60 0.32 10.36 0.32L10.36 0.32Q5.88 0.32 3.60-1.96Q1.32-4.24 1.32-8.48L1.32-8.48Q1.32-14.08 4.34-17.26Q7.36-20.44 12.80-20.44L12.80-20.44Z M31.64-4.04L31.88-3.68L31.08 0L19.52 0L20.52-6L22.04-20.20L27-20.20L25-6.44L24.76-4.04L31.64-4.04Z M42.40-20.20L40.40-6.44L39.84 0L34.96 0L35.92-6L37.44-20.20L42.40-20.20Z M66.40-20.28L64.36-6.32L63.76 0L58.52 0L52.04-12.80L51.80-12.80L51.04-7.04L50.32 0L45.92 0L46.88-5.92L48.44-20.20L53.64-20.20L60.16-7.36L60.48-7.36L61.88-20L66.40-20.28Z M77.16-20.20L75.16-6.44L74.60 0L69.72 0L70.68-6L72.20-20.20L77.16-20.20Z M91.32-20.44Q92.84-20.44 94.28-20.18Q95.72-19.92 96.80-19.40L96.80-19.40L95.44-15.16L95-14.96Q94.20-15.64 93.04-16.04Q91.88-16.44 90.56-16.44L90.56-16.44Q85.04-16.44 85.04-9.12L85.04-9.12Q85.04-3.76 89.32-3.76L89.32-3.76Q90.48-3.76 91.80-4.12Q93.12-4.48 94.12-5.12L94.12-5.12L94.56-4.88L93.68-0.64Q91.12 0.32 88.88 0.32L88.88 0.32Q84.40 0.32 82.12-1.96Q79.84-4.24 79.84-8.48L79.84-8.48Q79.84-14.08 82.86-17.26Q85.88-20.44 91.32-20.44L91.32-20.44Z"></path></g>
        </svg>
      </g></svg>